<?xml version="1.0" encoding="utf-8"?>
<!-- Generator: Adobe Illustrator 25.0.1, SVG Export Plug-In . SVG Version: 6.00 Build 0)  -->
<svg version="1.1" id="Layer_1" xmlns="http://www.w3.org/2000/svg" xmlns:xlink="http://www.w3.org/1999/xlink" x="0px" y="0px"
	 viewBox="0 0 178 82" style="enable-background:new 0 0 178 82;" xml:space="preserve">
<style type="text/css">
	.st0{fill:#60BCAC;}
	.st1{fill:#EAE5E3;}
	.st2{fill:#26221E;}
</style>
<path class="st0" d="M24.1,34.9"/>
<g>
	<path class="st1" d="M62.9,43c0.4,0.7,0.6,1.5,0.5,2.4c-0.1,0.9-0.4,1.8-0.9,2.5c-0.5,0.7-1.2,1.3-2,1.7c-0.8,0.4-1.7,0.6-2.6,0.6
		c-1.3,0-2.4-0.3-3.2-0.8c-0.8-0.5-1.6-1.4-2.4-2.5c-0.1-0.2-0.2-0.4-0.1-0.6c0-0.2,0.2-0.4,0.4-0.5l1-0.7c0.1-0.1,0.3-0.1,0.4-0.1
		c0.3,0,0.5,0.1,0.7,0.4c0.5,0.7,0.9,1.3,1.4,1.6c0.4,0.3,1.1,0.5,1.9,0.5c0.7,0,1.3-0.2,1.9-0.6c0.5-0.4,0.8-0.9,0.8-1.6
		c0-0.6-0.2-1-0.6-1.4c-0.4-0.4-0.9-0.6-1.5-0.8c-0.6-0.2-1.1-0.2-1.7-0.2c-0.2,0-0.4,0-0.6-0.2C56.1,42.4,56,42.2,56,42l-0.1-1.3
		c0-0.2,0-0.4,0.2-0.6c0.1-0.2,0.3-0.3,0.5-0.3c1-0.1,1.8-0.3,2.5-0.7c0.7-0.3,1-0.9,1-1.7c0-0.6-0.2-1.1-0.7-1.4
		c-0.5-0.3-1-0.4-1.7-0.4c-0.6,0-1.1,0.1-1.4,0.4c-0.3,0.2-0.6,0.6-1,1.2c-0.2,0.3-0.4,0.4-0.7,0.4c-0.1,0-0.3,0-0.4-0.1l-1.1-0.6
		c-0.2-0.1-0.3-0.3-0.4-0.5c0,0,0-0.1,0-0.2c0-0.1,0-0.3,0.1-0.4c0.6-1.1,1.3-1.8,2-2.3c0.7-0.5,1.7-0.7,2.8-0.7
		c0.9,0,1.8,0.2,2.6,0.6c0.8,0.4,1.4,0.9,1.9,1.6c0.5,0.7,0.7,1.6,0.7,2.5c0,0.7-0.1,1.3-0.4,2c-0.3,0.6-0.7,1.1-1.2,1.6
		C62,41.6,62.6,42.2,62.9,43z"/>
	<g>
		<path class="st1" d="M65.5,37.6v12.1h2.6v-6.1h0c0-1.9,1.5-3.4,3.3-3.4c0.1,0,0.1,0,0.2,0l0.7-2.9c-0.2,0-0.5,0-0.7,0
			c-1.3,0-2.5,0.4-3.5,1.1v-0.9L65.5,37.6z"/>
	</g>
	<g>
		<path class="st1" d="M78.7,47.2c-1.8,0-3.3-1.5-3.3-3.4c0-1.9,1.5-3.4,3.3-3.4c1.8,0,3.3,1.5,3.3,3.4C82,45.7,80.5,47.2,78.7,47.2
			z M82,38.3c-1-0.7-2.2-1.2-3.5-1.2c-3.3,0-6.1,2.9-6.1,6.4c0,3.6,2.7,6.4,6.1,6.4c1.3,0,2.5-0.4,3.5-1.2v0.8h2.6V31.5H82V38.3z"/>
	</g>
	<g>
		<path class="st1" d="M102,50.1c2.5,0,4.8-1,6.5-2.7l-2.1-2.1c-1.1,1.1-2.7,1.9-4.4,1.9c-3.5,0-6.3-2.8-6.3-6.3
			c0-3.5,2.8-6.3,6.3-6.3c1.7,0,3.3,0.7,4.4,1.9l2.1-2.1c-1.7-1.7-4-2.7-6.5-2.7c-5.1,0-9.2,4.2-9.2,9.3
			C92.8,45.9,96.9,50.1,102,50.1z"/>
	</g>
	<g>
		<path class="st1" d="M115.1,40.3c1.8,0,3.3,1.5,3.3,3.4c0,1.9-1.5,3.4-3.3,3.4c-1.8,0-3.3-1.5-3.3-3.4
			C111.7,41.9,113.2,40.3,115.1,40.3z M115.1,50.1c3.4,0,6.2-2.9,6.2-6.4c0-3.5-2.8-6.4-6.2-6.4c-3.4,0-6.2,2.9-6.2,6.4
			C108.8,47.3,111.6,50.1,115.1,50.1z"/>
	</g>
	<g>
		<path class="st1" d="M122.7,31.5v13.4c0,3.5,1.5,4.7,5.2,4.7v-2.9c-1.6,0-1.7-0.5-1.7-1.7V31.5H122.7z"/>
	</g>
	<g>
		<path class="st1" d="M128.8,31.5v13.4c0,3.5,1.5,4.7,5.2,4.7v-2.9c-1.6,0-1.7-0.5-1.7-1.7V31.5H128.8z"/>
	</g>
	<g>
		<path class="st1" d="M138,41.9c0.6-1,1.6-1.7,2.8-1.7c1.2,0,2.3,0.7,2.8,1.7H138z M140.9,37.4c-3.4,0-6.2,2.9-6.2,6.4
			c0,3.5,2.8,6.4,6.2,6.4c2.6,0,4.8-1.6,5.8-3.9h-3.4c-0.6,0.6-1.4,1-2.3,1c-1.5,0-2.8-1.1-3.2-2.7h6.4l0,0h3c0-0.1,0.1-0.4,0.1-0.7
			C147.1,40.3,144.3,37.4,140.9,37.4z"/>
	</g>
	<g>
		<path class="st1" d="M155.1,42.1c0,1.1-0.9,2-2,2c-1.1,0-2-0.9-2-2s0.9-2,2-2C154.2,40.1,155.1,41,155.1,42.1z M152.2,35v2.6
			c-2,0.6-3.5,2.5-3.5,4.8c0,2.7,2.1,5,4.8,5c2.6,0,4.8-2.2,4.8-5c0-2.3-1.5-4.2-3.5-4.8V35H152.2z"/>
		<path class="st1" d="M150.5,53.2c0.3-1.6,1.6-2.8,3.3-2.8c1.6,0,3,1.2,3.3,2.8h2.9c-0.3-3.2-3-5.7-6.2-5.7c-3.2,0-5.9,2.5-6.2,5.7
			H150.5z"/>
	</g>
	<g>
		<path class="st1" d="M162.6,41.9c0.6-1,1.6-1.7,2.8-1.7c1.2,0,2.3,0.7,2.8,1.7H162.6z M165.4,37.4c-3.4,0-6.2,2.9-6.2,6.4
			c0,3.5,2.8,6.4,6.2,6.4c2.6,0,4.8-1.6,5.8-3.9h-3.4c-0.6,0.6-1.4,1-2.3,1c-1.5,0-2.8-1.1-3.2-2.7h6.4l0,0h3c0-0.1,0.1-0.4,0.1-0.7
			C171.6,40.3,168.8,37.4,165.4,37.4z"/>
	</g>
</g>
<circle class="st2" cx="24.5" cy="42.4" r="18.1"/>
<path class="st0" d="M24.5,42.4"/>
<path class="st1" d="M37.8,44.5c-0.5-0.8-1.5-1.2-2.1-0.7l-8.7,5l0-1.3c0-0.1,0-0.2,0-0.2l0-2.6l5.6-3.2c0.6-0.4,0.7-1.4,0.2-2.2
	c-0.1-0.1-0.2-0.2-0.3-0.3l0,0l-5.7-6.2c0-0.1-0.1-0.1-0.2-0.2l0,0l0,0c0,0,0,0,0,0l0,0l-1.2-1.1c0,0-0.9-0.6-1.8,0
	c-1,0.6-1.9,1.7-1.9,1.7l0,0c-0.1,0.1-0.2,0.2-0.3,0.4c-0.5,0.8-0.5,1.8,0.2,2.2l1.9,1.1l0,4.2L18.3,38c-0.6-0.4-1.6-0.1-2.1,0.7
	c-0.5,0.8-0.5,1.8,0.2,2.2l7,4l0,4.1v0l-10.1-5.8c-0.6-0.4-1.6-0.1-2.1,0.7c-0.5,0.8-0.5,1.8,0.2,2.2l12,6.8c0,0,1.2,0.9,2.7,0
	l2.5-1.4l9-5.1C38.2,46.3,38.3,45.3,37.8,44.5z"/>
</svg>
