<?xml version="1.0" encoding="utf-8"?>
<!-- Generator: Adobe Illustrator 25.0.1, SVG Export Plug-In . SVG Version: 6.00 Build 0)  -->
<svg version="1.1" id="Layer_1" xmlns="http://www.w3.org/2000/svg" xmlns:xlink="http://www.w3.org/1999/xlink" x="0px" y="0px"
	 viewBox="0 0 146.6 146.6" style="enable-background:new 0 0 146.6 146.6;" xml:space="preserve">
<style type="text/css">
	.st0{fill:#26221E;}
	.st1{fill:#60BCAC;}
	.st2{fill:#EAE5E3;}
</style>
<circle class="st0" cx="73.3" cy="73.3" r="73.3"/>
<path class="st1" d="M73.3,73.3"/>
<path class="st2" d="M126.9,81.8c-2.2-3.3-6-4.7-8.6-3L83.1,99L83,93.6c0-0.5,0-0.8,0-0.8l0.1-10.3l22.8-12.9
	c2.6-1.7,2.9-5.7,0.8-9.1c-0.3-0.5-0.7-1-1.1-1.4l0,0L82.4,34.4c-0.2-0.2-0.4-0.5-0.6-0.7l0,0l0,0c0,0,0,0,0,0l0,0L77,29
	c0,0-3.5-2.6-7.5,0S62,35.9,62,35.9l0,0c-0.5,0.5-1,1-1.4,1.6c-2.2,3.3-1.8,7.4,0.7,9.1l7.6,4.3l0,16.8L48.3,55.9
	c-2.6-1.7-6.4-0.4-8.6,3c-2.2,3.3-1.8,7.4,0.7,9.1l28.5,16.2l0,16.7v0.1L28.2,77.5c-2.6-1.7-6.4-0.4-8.6,3c-2.2,3.3-1.8,7.4,0.7,9.1
	L69,117.1c0,0,4.9,3.5,10.8,0l9.9-5.6l36.5-20.6C128.7,89.2,129.1,85.2,126.9,81.8z"/>
</svg>
